<svg width="32" height="32" viewBox="0 0 32 32" fill="none" xmlns="http://www.w3.org/2000/svg">
<path d="M15.5531 9.9403C14.4422 9.9403 12.7226 8.67725 10.9118 8.72291C8.52264 8.75334 6.33133 10.1077 5.09872 12.2533C2.61829 16.5599 4.45959 22.9207 6.87916 26.4207C8.06612 28.1251 9.46612 30.0425 11.3226 29.9816C13.1031 29.9055 13.7726 28.8251 15.9335 28.8251C18.0792 28.8251 18.6879 29.9816 20.5748 29.9359C22.4922 29.9055 23.7096 28.2012 24.8813 26.4816C26.2357 24.5033 26.7987 22.5859 26.8292 22.4794C26.7835 22.4642 23.1009 21.049 23.0552 16.7881C23.0248 13.2273 25.9618 11.5229 26.0987 11.4468C24.4248 8.99682 21.8531 8.72291 20.9552 8.66204C18.6118 8.47943 16.6487 9.9403 15.5531 9.9403ZM19.5096 6.34899C20.4987 5.16204 21.1531 3.50334 20.9705 1.85986C19.5552 1.92073 17.8509 2.80334 16.8313 3.9903C15.9183 5.0403 15.127 6.72943 15.34 8.34247C16.9074 8.46421 18.5205 7.53595 19.5096 6.34899Z" fill="white"/>
</svg>
