<svg width="84" height="90" viewBox="0 0 84 90" fill="none" xmlns="http://www.w3.org/2000/svg">
<path d="M61.1803 37.6077V45.0055C48.6502 45.7179 38.7094 56.104 38.7094 68.8124C38.7094 74.6519 40.8091 80.0014 44.2937 84.1475H6.89326C3.20986 84.1475 0.223755 81.1614 0.223755 77.478V37.6077C0.223755 33.924 3.20986 30.9377 6.89326 30.9377H54.5099C58.1942 30.9377 61.1803 33.924 61.1803 37.6077Z" fill="#4BEEA2" fill-opacity="0.6"/>
<path d="M16.7805 26.2212V18.4116C16.7806 14.6949 18.2301 11.1954 20.8577 8.56787C23.4863 5.93929 26.9858 4.49074 30.7014 4.49072C34.4179 4.49072 37.9174 5.93922 40.5452 8.56787C43.1738 11.1955 44.6232 14.6949 44.6233 18.4116V26.2212H48.1135V18.4116C48.1135 16.2066 47.7086 14.0656 46.9094 12.0376L46.7444 11.6333C45.8677 9.55988 44.6127 7.69884 43.0139 6.1001C41.4142 4.50041 39.5531 3.24532 37.4797 2.36865C35.3328 1.4602 33.0534 0.999512 30.7014 0.999512C28.4974 0.99952 26.3564 1.4045 24.3284 2.20361L23.9241 2.36865C21.8507 3.24533 19.9896 4.50037 18.3899 6.1001C16.891 7.59903 15.6945 9.32863 14.8284 11.2476L14.6594 11.6333L14.4944 12.0376C13.6952 14.0656 13.2903 16.2067 13.2903 18.4116V26.2212H16.7805Z" fill="#4BEEA2" stroke="#4BEEA2" stroke-width="2"/>
<path d="M83.7762 68.7796C83.7762 80.4991 74.2758 90.0005 62.5554 90.0005C50.8361 90.0005 41.3347 80.4991 41.3347 68.7796C41.3347 57.0595 50.8361 47.5586 62.5554 47.5586C74.2758 47.5586 83.7762 57.0595 83.7762 68.7796Z" fill="white" fill-opacity="0.1"/>
<path d="M66.1914 68.7794L72.9171 75.5052L69.2812 79.1411L62.5555 72.4144L55.8297 79.1411L52.1938 75.5052L58.9206 68.7794L52.1938 62.0533L55.8297 58.4178L62.5555 65.1439L69.2812 58.4178L72.9171 62.0533L66.1914 68.7794Z" fill="white"/>
</svg>
