<svg width="208" height="180" viewBox="0 0 208 180" fill="none" xmlns="http://www.w3.org/2000/svg">
<g clip-path="url(#clip0_1076_637)">
<circle cx="105.24" cy="70.8947" r="40.818" fill="white" fill-opacity="0.07"/>
<circle opacity="0.4" cx="105.24" cy="70.8949" r="70.8944" stroke="white" stroke-opacity="0.27" stroke-width="1.43221" stroke-dasharray="1.43 6.44"/>
<path opacity="0.5" d="M109.221 60.3774L108.694 84.367H105.047L104.519 60.3774H109.221ZM107.062 94.1067C106.231 94.1067 105.527 93.8188 104.951 93.2431C104.375 92.6674 104.088 91.9637 104.088 91.132C104.088 90.3004 104.375 89.5967 104.951 89.0209C105.527 88.4452 106.231 88.1573 107.062 88.1573C107.862 88.1573 108.534 88.4452 109.077 89.0209C109.653 89.5967 109.941 90.3004 109.941 91.132C109.941 91.9637 109.653 92.6674 109.077 93.2431C108.534 93.8188 107.862 94.1067 107.062 94.1067Z" fill="#878B89"/>
</g>
<path fill-rule="evenodd" clip-rule="evenodd" d="M27.2459 96.338C25.2402 92.0367 27.1011 86.9239 31.4024 84.9181L72.9392 65.5492L76.0144 72.1441L82.8008 77.5292L82.9937 87.1113L87.4509 94.9753L87.9647 104.549L99.4069 113.141L99.9821 123.543L102.598 129.152L61.0611 148.521C56.7598 150.527 51.6469 148.666 49.6412 144.365L27.2459 96.338Z" fill="#878B89"/>
<mask id="mask0_1076_637" style="mask-type:luminance" maskUnits="userSpaceOnUse" x="26" y="65" width="77" height="85">
<path fill-rule="evenodd" clip-rule="evenodd" d="M27.2459 96.338C25.2402 92.0367 27.1011 86.9239 31.4024 84.9181L72.9392 65.5492L76.0144 72.1441L82.8008 77.5292L82.9937 87.1113L87.4509 94.9753L87.9647 104.549L99.4069 113.141L99.9821 123.543L102.598 129.152L61.0611 148.521C56.7598 150.527 51.6469 148.666 49.6412 144.365L27.2459 96.338Z" fill="white"/>
</mask>
<g mask="url(#mask0_1076_637)">
<g opacity="0.648947">
<circle cx="60.5456" cy="132.166" r="5.72884" transform="rotate(-25 60.5456 132.166)" fill="black" style="mix-blend-mode:overlay"/>
</g>
<g opacity="0.648947">
<circle cx="66.3867" cy="129.443" r="5.72884" transform="rotate(-25 66.3867 129.443)" fill="black" style="mix-blend-mode:overlay"/>
</g>
<rect x="30.2729" y="102.828" width="61.5851" height="11.4577" transform="rotate(-25 30.2729 102.828)" fill="black" fill-opacity="0.37"/>
</g>
<path fill-rule="evenodd" clip-rule="evenodd" d="M138.872 94.6074L177.812 112.766C182.114 114.771 183.974 119.884 181.969 124.186L159.573 172.212C157.568 176.514 152.455 178.375 148.154 176.369L109.213 158.211L112.035 152.159L119.455 145.663L118.845 137.554L118.86 129.896L125.024 124.302L129.325 115.079L135.849 110.506L135.874 101.036L138.872 94.6074Z" fill="#878B89"/>
<mask id="mask1_1076_637" style="mask-type:luminance" maskUnits="userSpaceOnUse" x="109" y="94" width="74" height="84">
<path fill-rule="evenodd" clip-rule="evenodd" d="M138.872 94.6074L177.812 112.766C182.114 114.771 183.974 119.884 181.969 124.186L159.573 172.212C157.568 176.514 152.455 178.375 148.154 176.369L109.213 158.211L112.035 152.159L119.455 145.663L118.845 137.554L118.86 129.896L125.024 124.302L129.325 115.079L135.849 110.506L135.874 101.036L138.872 94.6074Z" fill="white"/>
</mask>
<g mask="url(#mask1_1076_637)">
<rect x="132.214" y="108.886" width="51.5596" height="11.4577" transform="rotate(25 132.214 108.886)" fill="black" fill-opacity="0.37"/>
<rect x="130.018" y="145.789" width="28.6442" height="3.58053" transform="rotate(25 130.018 145.789)" fill="black" fill-opacity="0.3"/>
<rect x="138.976" y="157.076" width="15.7543" height="3.58053" transform="rotate(25 138.976 157.076)" fill="black" fill-opacity="0.3"/>
</g>
<g opacity="0.5">
<path d="M196.176 111.3L203.096 107.566C203.822 107.174 204.089 106.276 203.693 105.56C203.296 104.844 202.387 104.58 201.662 104.972L194.741 108.706C194.016 109.098 193.749 109.996 194.145 110.712C194.541 111.428 195.45 111.692 196.176 111.3Z" fill="#878B89"/>
<path d="M189.53 103.195L194.333 96.9692C194.836 96.3164 194.715 95.3874 194.062 94.8941C193.408 94.4009 192.471 94.5301 191.967 95.1829L187.164 101.409C186.661 102.062 186.782 102.991 187.435 103.484C188.088 103.977 189.026 103.848 189.53 103.195Z" fill="#878B89"/>
<path d="M197.728 120.496L205.588 120.722C206.412 120.746 207.093 120.102 207.108 119.284C207.123 118.465 206.467 117.782 205.643 117.759L197.783 117.533C196.959 117.509 196.278 118.153 196.263 118.972C196.248 119.79 196.904 120.473 197.728 120.496Z" fill="#878B89"/>
</g>
<g opacity="0.5">
<path d="M12.2728 82.6579L5.48705 78.6843C4.77567 78.2677 4.54015 77.3609 4.96101 76.6588C5.38187 75.9568 6.29973 75.7253 7.01112 76.1419L13.7969 80.1155C14.5083 80.5321 14.7438 81.439 14.3229 82.141C13.9021 82.8431 12.9842 83.0745 12.2728 82.6579Z" fill="#878B89"/>
<path d="M19.1983 74.7896L14.6155 68.3994C14.135 67.7295 14.2887 66.8053 14.9587 66.3351C15.6288 65.865 16.5614 66.0269 17.0418 66.6968L21.6247 73.0869C22.1052 73.7568 21.9515 74.681 21.2814 75.1512C20.6114 75.6214 19.6788 75.4595 19.1983 74.7896Z" fill="#878B89"/>
<path d="M10.4012 91.7939L2.53775 91.7455C1.71338 91.7404 1.056 91.0728 1.06945 90.2544C1.0829 89.436 1.76208 88.7766 2.58645 88.7817L10.4499 88.8301C11.2743 88.8352 11.9316 89.5028 11.9182 90.3212C11.9047 91.1396 11.2256 91.799 10.4012 91.7939Z" fill="#878B89"/>
</g>
<defs>
<clipPath id="clip0_1076_637">
<rect width="141.789" height="141.789" fill="white" transform="translate(34.3445)"/>
</clipPath>
</defs>
</svg>
