<svg width="215" height="152" viewBox="0 0 215 152" fill="none" xmlns="http://www.w3.org/2000/svg">
<path d="M192.5 160.688V99.9541C169.246 89.3315 148.583 79.8837 148.583 79.8837L147.686 81.358C143.387 79.2731 138.589 76.9583 138.589 76.9583L137.633 78.7712C136.467 78.3008 135.568 77.9468 135.006 77.7407C128.174 75.2338 123.34 69.1187 123.34 69.1187C123.34 69.1187 120.749 66.7184 114.646 65.6598C113.754 65.5049 112.684 65.4299 111.491 65.4299C107.849 65.4299 103.065 66.1267 98.7032 67.364C94.3117 67.5057 89.9639 67.7391 88.8538 67.8814C88.6187 67.9115 88.2655 67.9242 87.8187 67.9242C86.5714 67.9242 84.5927 67.8246 82.3991 67.7223C83.0297 66.2978 83.559 64.7057 83.7519 63.1635L72.8626 61.6941C72.6642 62.6398 71.8469 63.8498 71.3016 64.6076C71.1969 64.7527 71.1774 64.7723 71.0429 64.888L70.2644 65.7292C69.9016 66.0643 69.4312 66.3118 69.0018 66.5572C67.4457 67.4524 66.1317 67.8414 64.3134 67.8681C64.3064 67.8688 64.2988 67.8688 64.2904 67.8688C64.1663 67.8688 63.879 67.8576 63.5641 67.8471C63.2491 67.8365 62.9071 67.826 62.6726 67.826C62.529 67.826 62.4256 67.8295 62.3937 67.84L64.1156 54.0929C64.3473 54.1174 64.7005 54.1279 65.1244 54.1279C66.7547 54.1279 69.4368 53.9674 70.329 53.7978C72.8647 53.3155 72.9313 53.504 75.7174 52.5156C76.3314 52.2976 76.8087 52.1188 77.3991 51.8797C77.9846 51.6428 78.36 51.3918 78.8838 51.0764C83.2628 48.4405 85.8797 44.3416 86.57 38.8301C87.1819 33.9411 84.5802 29.1833 81.3903 25.8309C81.1884 25.6192 81.0115 25.4103 80.8041 25.1944L78.9601 23.4881C76.5153 21.4656 73.8297 20.1905 70.7175 19.3282L68.6043 18.8613C68.494 17.7831 69.1301 14.0502 69.3181 12.5471C69.3993 11.9008 69.6983 10.7441 69.3216 10.6958L59.6998 9.46544C59.6859 9.46333 59.6728 9.46263 59.6596 9.46263C59.3682 9.46263 59.4098 9.9232 59.3696 10.2709C59.1122 12.4897 58.8937 14.9307 58.4386 17.0982C58.1978 17.073 57.8468 17.0625 57.4451 17.0625C56.3198 17.0625 54.7991 17.1452 54.1927 17.2188C53.5004 17.3029 52.8933 17.3331 52.2342 17.4929C48.6246 18.3699 46.6605 19.4628 43.6655 21.7874C42.5312 22.6679 41.56 23.7944 40.629 24.8979L39.564 26.3364C38.9008 27.3452 38.2542 28.3911 37.6985 29.5604C37.2947 30.4108 36.8688 31.449 36.6128 32.3855C36.542 32.6428 36.2756 33.17 36.6405 33.217L47.6901 34.6295C47.7012 34.6309 47.7116 34.6316 47.722 34.6316C47.9752 34.6316 48.012 34.2201 48.0661 33.972C48.447 32.2131 49.4259 30.9597 51.043 30.1647C51.8832 29.7511 52.7823 29.5001 53.7695 29.3003C54.2302 29.2071 54.7734 29.1342 55.318 29.1104L57.0011 29.184L55.327 42.5512L50.9917 42.3787C46.7292 42.4348 42.5111 43.5641 39.0562 45.818C38.6233 46.1012 38.1605 46.5141 37.7408 46.8428C36.1146 48.1173 35.4923 48.8071 34.3435 50.5436L33.436 52.0108C33.3042 52.2849 33.2098 52.6368 33.0836 52.9656C32.5591 54.334 32.3211 55.5132 32.1317 57.026C31.6614 60.78 32.89 64.269 34.7021 67.3416C35.3674 68.4696 36.2007 69.5113 37.1039 70.4605C38.6212 72.0553 39.7576 73.055 41.5787 74.2846L43.6038 75.5058C43.8425 75.6355 43.7544 75.6285 43.9812 75.7582C45.8003 76.8055 48.8202 77.8339 50.8758 78.0968L50.821 78.5363C48.798 78.3877 47.7851 78.1907 47.5784 78.1655C47.4389 78.148 42.4966 76.2005 37.2871 74.2152C36.3665 72.7136 35.382 71.3115 34.451 70.3771C32.9372 68.8544 31.499 68.3455 30.2329 68.3455C28.9224 68.3455 27.7964 68.8923 26.9639 69.4244C26.744 69.5646 26.6531 69.9004 26.6559 70.3708C26.2473 70.2453 25.901 70.1471 25.6499 70.091C25.0519 69.9578 24.431 69.9032 23.8149 69.9032C23.2793 69.9032 22.7472 69.9445 22.2359 70.0104C21.5553 69.3522 20.9455 68.8355 20.4564 68.5362C19.2701 67.8113 17.3837 67.4313 15.5668 67.4313C14.2444 67.4313 12.9596 67.6325 12.0071 68.0482C11.8281 68.1268 12.0549 68.8839 12.5114 70.0027C8.94341 70.0378 6.11769 71.4167 7.27766 74.4816C7.36993 74.727 13.0838 78.5539 18.824 82.3527C21.3465 84.9683 37.1352 99.9387 37.1352 99.9387L61.5903 103.97C64.8441 105.471 69.4798 107.788 69.4798 107.788L104.142 104.413C104.142 104.413 117.023 106.392 118.545 106.967C118.747 107.044 119.893 107.773 121.716 108.972L120.637 111.019L127.258 114.972L126.38 116.415L192.5 160.688ZM71.3079 78.3022C72.2202 79.0383 73.2018 79.7141 74.0427 80.2546C71.3315 80.4964 68.537 80.849 66.8199 81.3475C64.8281 80.8883 62.776 80.4312 60.8674 80.0274L60.9194 79.6131C61.9379 79.7435 63.0972 79.8479 64.1767 79.8479C64.8829 79.8479 65.5552 79.8031 66.1317 79.6916C66.8137 79.5584 67.3604 79.475 68.0284 79.3362C69.1336 79.1077 70.2381 78.7494 71.3079 78.3022ZM50.1627 54.2036C50.2806 54.2036 50.3978 54.2065 50.513 54.2121L53.2659 54.3424C53.5552 54.3424 53.8396 54.4308 53.8056 54.7042L52.3313 66.4765L51.2789 66.3426C49.0797 66.0608 47.2204 65.329 45.8218 64.384C43.3457 62.7106 43.2646 61.4298 43.5844 58.876C43.9923 55.619 47.4958 54.2036 50.1627 54.2036ZM67.1307 30.0161C70.0272 30.3869 72.9916 31.3123 74.2827 33.7294C75.0271 35.1245 74.7475 36.2784 74.5526 37.8332C74.4131 38.9444 72.6121 40.4712 71.636 41.0117C71.4605 41.1084 71.269 41.1666 71.0727 41.25C70.1902 41.623 69.6657 41.8452 68.6077 42.0135C68.1929 42.0787 67.6927 42.1116 67.1689 42.1116C66.659 42.1116 66.1268 42.0801 65.628 42.0163L67.1307 30.0161Z" fill="white" fill-opacity="0.2"/>
<path fill-rule="evenodd" clip-rule="evenodd" d="M80.4571 74.6011C78.7324 73.8889 59.4409 69.3168 55.943 69.1892C52.445 69.063 50.7966 68.7342 50.5261 68.7013C50.2555 68.6676 31.9117 61.3692 28.5976 60.6268C25.2842 59.8858 21.2513 61.5557 21.2513 61.5557C21.2513 61.5557 26.8479 69.4247 27.8462 70.0199C28.8446 70.6144 75.2601 82.8613 75.2601 82.8613L80.4571 74.6011Z" fill="#E3AD99"/>
<path fill-rule="evenodd" clip-rule="evenodd" d="M51.6289 85.5773C50.6985 85.3242 33.4849 80.5923 33.4849 80.5923C33.4849 80.5923 10.4131 65.5125 10.2265 65.0182C8.21803 59.7122 18.1527 59.4514 23.2123 62.4889C24.9905 63.5566 37.8625 71.7432 37.8625 71.7432L66.5531 78.0307L64.5003 87.0684L51.6289 85.5773Z" fill="#E3AD99"/>
<path fill-rule="evenodd" clip-rule="evenodd" d="M74.5579 92.2899L72.2691 95.7803L40.0834 90.4749C40.0834 90.4749 22.0587 73.3845 21.4482 72.5321C20.837 71.6803 14.1873 58.9195 14.9553 58.5844C17.217 57.5974 21.3559 57.8203 23.4046 59.0731C26.5612 61.0016 34.7449 71.9832 34.7449 71.9832C34.7449 71.9832 43.48 77.8312 46.4237 79.3594C49.3673 80.8883 52.2118 82.7923 52.2118 82.7923L73.4576 85.2761L74.5579 92.2899Z" fill="#EDBEAE"/>
<path fill-rule="evenodd" clip-rule="evenodd" d="M112.026 58.0033C110.504 57.4271 94.1163 58.1218 91.8026 58.419C89.4889 58.7156 75.8495 57.3374 73.2847 58.574C70.7198 59.8099 70.5075 62.6967 71.4282 65.5282C72.3488 68.3596 79.0665 72.0449 79.0665 72.0449C79.0665 72.0449 94.2655 69.3733 94.5679 68.6891C94.8704 68.0056 112.026 58.0033 112.026 58.0033Z" fill="#E3AD99"/>
<path fill-rule="evenodd" clip-rule="evenodd" d="M200.764 94.7551L177.627 135.387C177.627 135.387 123.015 98.0814 121.493 97.5052C119.971 96.9297 107.09 94.9507 107.09 94.9507L72.4278 98.3261C72.4278 98.3261 62.8511 93.5388 61.5663 93.2689C60.2814 92.999 48.9495 89.1041 48.9495 89.1041C48.9495 89.1041 34.9889 75.1775 34.2924 73.8988C33.5965 72.6208 28.2753 61.0083 29.9119 59.9624C31.5478 58.9164 34.3159 57.8158 37.3997 60.915C40.4835 64.0129 44.1556 72.2324 44.1556 72.2324C44.1556 72.2324 51.4019 77.6752 51.8917 77.4859C52.3808 77.2967 62.6749 78.6504 62.6749 78.6504C62.6749 78.6504 65.4992 73.4515 69.1789 72.0754C72.8587 70.7 84.6512 70.3249 84.6512 70.3249C84.6512 70.3249 86.8394 67.2117 91.9628 62.519C97.0863 57.8263 111.492 55.1393 117.594 56.1978C123.697 57.2564 126.288 59.6567 126.288 59.6567C126.288 59.6567 131.122 65.7718 137.954 68.2794C144.787 70.7869 200.764 94.7551 200.764 94.7551Z" fill="#FBCBBB"/>
<path fill-rule="evenodd" clip-rule="evenodd" d="M157.221 75.1171C156.138 74.5402 141.537 67.4955 141.537 67.4955L123.586 101.556L134.772 108.234L157.221 75.1171Z" fill="#E9EAEA"/>
<path fill-rule="evenodd" clip-rule="evenodd" d="M259.534 119.698C257.233 118.749 151.531 70.4207 151.531 70.4207L129.328 106.952L226.832 172.239L259.534 119.698Z" fill="#17402D"/>
<path fill-rule="evenodd" clip-rule="evenodd" d="M53.0348 9.39967L50.9216 9.86654C47.8094 10.7288 45.1238 12.0047 42.679 14.0265L40.835 15.7335C40.6275 15.9487 40.4506 16.1576 40.2487 16.37C37.0588 19.7216 34.4565 24.4795 35.0691 29.3685C35.7594 34.8799 38.377 38.9788 42.7553 41.6147C43.2791 41.9302 43.6544 42.1811 44.2399 42.4188C44.8303 42.6571 45.3076 42.8359 45.9216 43.0539C48.7078 44.0424 48.7744 43.8538 51.3101 44.3361C52.4347 44.5499 56.4002 44.7497 57.5234 44.6312L59.2454 58.3784C59.108 58.3328 57.597 58.4106 57.3257 58.4064C55.5074 58.3798 54.1934 57.9907 52.6366 57.0962C52.2078 56.8501 51.7374 56.6027 51.3746 56.2676L50.5969 55.4257C50.4616 55.3107 50.4422 55.2911 50.3374 55.146C49.7921 54.3881 48.9749 53.1789 48.7765 52.2325L37.8872 53.7011C38.1404 55.7236 38.9701 57.8344 39.8505 59.5358C40.9293 61.6192 42.4153 63.6564 44.2594 65.0984C45.171 65.8121 46.0687 66.5131 47.0414 67.1279C49.0214 68.3779 51.317 69.3993 53.6106 69.8753C54.2787 70.0134 54.8254 70.0968 55.5074 70.23C56.9656 70.5132 59.0351 70.3667 60.7196 70.1515L61.7755 78.582C61.797 78.7573 61.856 78.8028 62.0294 78.7811L71.6505 77.5508C71.8233 77.5291 71.8691 77.4695 71.8476 77.2942L70.7632 68.6351C72.8188 68.3722 75.8388 67.3438 77.6578 66.2972C77.8847 66.1668 77.7966 66.1738 78.0352 66.0441L80.061 64.8229C81.8815 63.5933 83.0178 62.5937 84.5351 60.9988C85.4384 60.0496 86.2716 59.0079 86.9369 57.88C88.749 54.8074 89.9777 51.3183 89.5073 47.5643C89.3179 46.0515 89.08 44.8724 88.5555 43.504C88.4292 43.1752 88.3349 42.8233 88.203 42.5492L87.2956 41.0819C86.1467 39.3455 85.5251 38.6557 83.8982 37.3812C83.4785 37.0517 83.0158 36.6395 82.5829 36.3563C79.1279 34.1025 74.9098 32.9731 70.6474 32.917L66.312 33.0895L64.638 19.7223L66.321 19.6487C66.8656 19.6725 67.4089 19.7454 67.8695 19.8387C68.8568 20.0378 69.7559 20.2901 70.596 20.703C72.2132 21.4973 73.1921 22.7514 73.573 24.5103C73.6292 24.769 73.6673 25.2043 73.949 25.1679L84.9986 23.7553C85.3635 23.7083 85.0971 23.1819 85.0263 22.9239C84.7703 21.9873 84.3443 20.9484 83.9399 20.0981C83.3849 18.9294 82.7383 17.8835 82.075 16.8747L81.0101 15.4362C80.0791 14.3328 79.1078 13.2062 77.9735 12.3258C74.9785 10.0011 73.0145 8.90824 69.4048 8.03196C68.7458 7.87142 68.1387 7.84129 67.4463 7.75716C66.6235 7.65762 64.117 7.53984 63.2005 7.63658C62.7454 5.469 62.5268 3.02802 62.2695 0.809265C62.2278 0.446838 62.275 -0.0396805 61.9385 0.00378418L52.3174 1.23409C51.9407 1.28246 52.2397 2.43916 52.3209 3.0855C52.5089 4.58851 53.1451 8.32148 53.0348 9.39967ZM47.0865 28.3716C46.8915 26.8167 46.6119 25.6628 47.3563 24.2678C48.6474 21.8506 51.6119 20.9253 54.5083 20.5544L56.011 32.5546C54.9988 32.6843 53.8486 32.6801 53.0313 32.5518C51.9733 32.3836 51.4488 32.1613 50.5664 31.7884C50.37 31.7057 50.1786 31.6475 50.003 31.55C49.0262 31.0096 47.2259 29.4827 47.0865 28.3716ZM70.3601 56.881L69.3077 57.0149L67.8335 45.2425C67.7995 44.9691 68.0839 44.8808 68.3732 44.8801L71.126 44.7504C73.8255 44.6193 77.6287 46.013 78.0547 49.4143C78.3745 51.9682 78.2933 53.249 75.8173 54.9223C74.4187 55.8673 72.5594 56.5992 70.3601 56.881Z" fill="#C1F8FF"/>
</svg>
