<svg width="27" height="30" viewBox="0 0 27 30" fill="none" xmlns="http://www.w3.org/2000/svg">
<g clip-path="url(#clip0_1076_2612)">
<path d="M12.8423 14.3247L0.705994 27.0399C0.842283 27.5229 1.0872 27.9683 1.42202 28.3422C1.75684 28.716 2.17271 29.0083 2.63782 29.1968C3.10293 29.3853 3.60498 29.4649 4.10559 29.4296C4.6062 29.3944 5.09212 29.2451 5.52619 28.9932L19.1818 21.2159L12.8423 14.3247Z" fill="#EA4335" stroke="#EA4335" stroke-width="0.716956"/>
<path d="M25.1142 12.1651L19.209 8.78271L12.562 14.6157L19.2361 21.1994L25.0963 17.8532C25.6154 17.5814 26.0503 17.1727 26.3537 16.6713C26.6571 16.17 26.8175 15.5951 26.8175 15.0091C26.8175 14.4231 26.6571 13.8483 26.3537 13.3469C26.0503 12.8456 25.6154 12.4368 25.0963 12.165L25.1142 12.1651Z" fill="#FBBC04" stroke="#FBBC04" stroke-width="0.716956"/>
<path d="M0.705645 2.91357C0.632331 3.18478 0.595814 3.46461 0.597078 3.74555V26.2095C0.597802 26.4904 0.634284 26.77 0.705645 27.0416L13.258 14.652L0.705645 2.91357Z" fill="#4285F4" stroke="#4285F4" stroke-width="0.716956"/>
<path d="M12.9328 14.9769L19.209 8.78213L5.57146 0.968538C5.05835 0.668052 4.47478 0.508914 3.88016 0.507331C2.40456 0.504463 1.10728 1.48382 0.705994 2.90391L12.9328 14.9769Z" fill="#34A853" stroke="#34A853" stroke-width="0.716956"/>
</g>
<defs>
<clipPath id="clip0_1076_2612">
<rect width="26.2258" height="28.9855" fill="white" transform="translate(0.594208 0.507324)"/>
</clipPath>
</defs>
</svg>
