<svg width="80" height="80" viewBox="0 0 80 80" fill="none" xmlns="http://www.w3.org/2000/svg">
<path d="M61.2133 18.1238L72.948 6.50113C73.4462 6.0077 74.2703 6.08879 74.6628 6.66988L77.3698 10.6775C77.7427 11.2296 77.5537 11.983 76.9645 12.2938L62.5228 19.9088C62.2789 20.0375 61.9961 20.0715 61.7286 20.0045C61.4612 19.9374 61.2279 19.7739 61.0736 19.5454C60.9275 19.3293 60.8615 19.0689 60.887 18.8094C60.9125 18.5498 61.0279 18.3073 61.2133 18.1238ZM63.1539 28.1049C63.1979 28.3199 63.3197 28.511 63.496 28.6417C63.6722 28.7724 63.8906 28.8333 64.1091 28.8129L77.0437 27.6054C77.1683 27.5937 77.289 27.5559 77.3979 27.4945C77.5069 27.4331 77.6017 27.3494 77.6762 27.249C77.7507 27.1485 77.8032 27.0334 77.8302 26.9113C77.8573 26.7892 77.8583 26.6627 77.8333 26.5402L77.0616 22.77C76.9497 22.2235 76.3684 21.9132 75.852 22.1246L63.6891 27.1021C63.497 27.1807 63.3384 27.3239 63.2407 27.507C63.143 27.6901 63.1123 27.9016 63.1539 28.1049ZM53.4962 14.3793C53.6794 14.5001 53.9006 14.5491 54.1176 14.5168C54.3346 14.4846 54.5321 14.3734 54.6722 14.2046L62.9645 4.20457C63.0444 4.10827 63.103 3.99622 63.1367 3.87574C63.1703 3.75526 63.1782 3.62904 63.1598 3.50531C63.1414 3.38157 63.0972 3.2631 63.03 3.1576C62.9628 3.0521 62.8741 2.96195 62.7697 2.89301L59.5583 0.772852C59.0927 0.465508 58.4622 0.657071 58.2466 1.17176L53.1656 13.2919C53.0854 13.4833 53.0746 13.6967 53.135 13.8952C53.1953 14.0937 53.3231 14.2649 53.4962 14.3793Z" fill="#4BEEA2"/>
<path d="M34.125 74.9742L31.6268 76.4352C29.5962 77.6227 26.9875 76.9392 25.8 74.9086L19.1765 63.5825C17.989 61.5519 18.6725 58.9431 20.7031 57.7556L23.2012 56.2947C25.2318 55.1072 27.8406 55.7906 29.0281 57.8212L35.6515 69.1473C36.8392 71.178 36.1556 73.7867 34.125 74.9742Z" fill="#4BEEA2"/>
<path d="M18.8127 63.8596L43.0175 50.6814L26.471 24.7739L4.59114 41.0291C4.45004 41.1192 -1.46371 46.5302 5.03083 56.6991C11.5254 66.868 18.8127 63.8596 18.8127 63.8596Z" fill="#42D993"/>
<path d="M56.6457 23.7857C63.8855 35.1213 68.2718 47.4017 65.2429 49.336C62.214 51.2704 52.9171 42.1267 45.6772 30.7909C38.4374 19.4551 34.0513 7.1751 37.0801 5.24056C40.1088 3.30603 49.4058 12.4499 56.6457 23.7857Z" fill="white" fill-opacity="0.3"/>
<path d="M53.237 39.5152C55.7462 37.9126 55.0273 32.3031 51.6313 26.9862C48.2353 21.6693 43.4482 18.6583 40.939 20.261C38.4298 21.8636 39.1487 27.473 42.5447 32.79C45.9407 38.1069 50.7278 41.1179 53.237 39.5152Z" fill="white" fill-opacity="0.2"/>
<path d="M65.1106 49.4208C62.465 51.1105 53.4788 41.7683 46.2389 30.4326C38.9991 19.0968 34.3022 7.01506 36.9478 5.32537C37.1002 5.22803 37.2711 5.16381 37.4578 5.12834C36.2097 5.09975 34.9869 5.75069 34.2633 7.13444C31.0745 13.2326 22.9366 26.7622 22.9366 26.7622C22.9366 26.7622 18.8983 32.1997 25.9972 43.3146C33.0961 54.4294 39.9497 53.0385 39.9497 53.0385C39.9497 53.0385 55.5189 51.448 62.3597 51.1213C63.9792 51.044 65.1072 50.1447 65.5758 48.9316C65.4514 49.1363 65.2975 49.3015 65.1106 49.4208Z" fill="#9BA4A0"/>
<path d="M8.26429 48.1521C7.89427 48.1526 7.53011 48.0597 7.20555 47.8821C6.88098 47.7044 6.60651 47.4477 6.40757 47.1357C5.75335 46.1113 6.05335 44.7507 7.07772 44.0965L16.1263 38.3174C17.1505 37.6633 18.5113 37.9632 19.1655 38.9876C19.8198 40.0119 19.5198 41.3726 18.4954 42.0268L9.44679 47.8058C9.09394 48.0322 8.68349 48.1524 8.26429 48.1521Z" fill="#4BEEA2"/>
</svg>
