<svg width="84" height="90" viewBox="0 0 84 90" fill="none" xmlns="http://www.w3.org/2000/svg">
<path d="M61.1802 37.6077V45.0055C48.65 45.7179 38.7093 56.104 38.7093 68.8124C38.7093 74.6519 40.809 80.0014 44.2936 84.1475H6.89314C3.20973 84.1475 0.223633 81.1614 0.223633 77.478V37.6077C0.223633 33.924 3.20973 30.9377 6.89314 30.9377H54.5097C58.1941 30.9377 61.1802 33.924 61.1802 37.6077Z" fill="#4BEEA2" fill-opacity="0.6"/>
<path d="M17.7805 18.4124C17.7805 14.9608 19.1247 11.7158 21.5647 9.2757C24.0058 6.83464 27.2508 5.49143 30.7015 5.49143C34.1531 5.49143 37.3981 6.83464 39.8382 9.2757C42.2793 11.7158 43.6235 14.9608 43.6235 18.4124V27.2217H49.1137V18.4124C49.1137 15.9277 48.6268 13.5158 47.6657 11.2445C46.7386 9.05167 45.4109 7.08291 43.7214 5.39347C42.031 3.70306 40.0623 2.37537 37.8695 1.44822C35.5981 0.487118 33.1862 0.000265121 30.7015 0.000265121C28.2178 0.000265121 25.8058 0.487118 23.5345 1.44822C21.3417 2.37537 19.3729 3.70306 17.6825 5.39347C15.9931 7.08291 14.6654 9.05167 13.7382 11.2445C12.7771 13.5158 12.2903 15.9277 12.2903 18.4124V27.2217H17.7805V18.4124Z" fill="#4BEEA2"/>
<path d="M83.7763 68.7796C83.7763 80.4991 74.2759 90.0005 62.5555 90.0005C50.8361 90.0005 41.3347 80.4991 41.3347 68.7796C41.3347 57.0595 50.8361 47.5586 62.5555 47.5586C74.2759 47.5586 83.7763 57.0595 83.7763 68.7796Z" fill="white" fill-opacity="0.1"/>
<path d="M75.2513 61.4736L58.5936 78.1328L50.1611 69.7L53.8259 66.0352L58.5925 70.8019L71.5866 57.8088L75.2513 61.4736Z" fill="white"/>
</svg>
